<svg width="608.58215" height="402.0506" xmlns="http://www.w3.org/2000/svg" data-name="Layer 1">

 <g>
  <title>Layer 1</title>
  <path id="svg_1" fill="#3f3d56" d="m184.39169,306.40036a10.22114,10.22114 0 0 0 -10.20953,10.20973l0,23.88568a10.22114,10.22114 0 0 0 10.20953,10.20973l12.94974,0a10.22114,10.22114 0 0 0 10.20953,-10.20973l0,-23.88568a10.22114,10.22114 0 0 0 -10.20953,-10.20973l-12.94974,0z"/>
  <path id="svg_2" fill="#3f3d56" d="m423.77262,351.5l-12.94973,0a11.01656,11.01656 0 0 1 -11.004,-11.00423l0,-23.88568a11.01656,11.01656 0 0 1 11.004,-11.00423l12.94973,0a11.01655,11.01655 0 0 1 11.004,11.00423l0,23.88568a11.01655,11.01655 0 0 1 -11.004,11.00423z"/>
  <path id="svg_3" fill="#ccc" d="m415.1802,332.37547l-222.99058,0c-10.14844,0 -18.40471,-5.98277 -18.40471,-13.33651l0,-42.87986l11.06824,-11.65635l239.81657,0l8.91519,11.68079l0,42.85542c0,7.35374 -8.25627,13.33651 -18.40471,13.33651z"/>
  <path id="svg_4" fill="#ccc" d="m423.62908,285.95413l-237.50447,0l-2.41353,-37.00883l1.53584,-3.787l8.9276,-21.96927l219.79706,0l12.07144,24.94747l-2.41394,37.81763z"/>
  <polygon id="svg_5" fill="#fff" points="425.64 248.216 423.868 276.023 371.614 276.023 371.614 255.366 424.154 245.149 425.64 248.216"/>
  <polygon id="svg_6" fill="#fff" points="237.345 255.366 237.345 276.023 185.877 276.023 184.113 249.01 185.615 245.308 237.345 255.366"/>
  <path id="svg_7" fill="#ccc" d="m412.64677,229.54495l-217.15,0l23.16063,-77.20183a15.4952,15.4952 0 0 1 14.76295,-11.09345l143.811,-1.36981a15.56437,15.56437 0 0 1 15.219,11.6645l20.19642,78.00059z"/>
  <path id="svg_8" fill="#fff" d="m395.93024,222.24496l-183.75216,-2.17888a1.48477,1.48477 0 0 1 -1.39631,-1.93785l17.61552,-54.96041a1.48476,1.48476 0 0 1 1.41392,-1.03159l147.79563,0a1.48476,1.48476 0 0 1 1.41372,1.031l18.341,57.1393a1.48477,1.48477 0 0 1 -1.43132,1.93843z"/>
  <path id="svg_9" fill="#078c3a" d="m328.83579,149.30092l-49.528,0c-0.41737,0 -0.79594,-0.41083 -0.98795,-1.07265a3.33948,3.33948 0 0 1 0.07889,-2.05917l4.08423,-10.32844c0.2082,-0.52643 0.54809,-0.84066 0.90906,-0.84066l41.35956,0c0.361,0 0.70086,0.31423 0.90906,0.84066l4.08423,10.32844a3.33948,3.33948 0 0 1 0.07889,2.05917c-0.19203,0.66182 -0.5706,1.07265 -0.98797,1.07265z"/>
  <path id="svg_10" fill="#ccc" d="m195.63353,227.95596l-32.57431,0l0,-7.15977a8.73991,8.73991 0 0 1 8.73014,-8.73014l23.84417,0l0,15.88991z"/>
  <path id="svg_11" fill="#ccc" d="m445.10508,227.95596l-32.5743,0l0,-15.88991l23.84417,0a8.7399,8.7399 0 0 1 8.73014,8.73014l-0.00001,7.15977z"/>
  <rect id="svg_12" fill="#3f3d56" transform="matrix(0.94112, -0.33808, 0.33808, 0.94112, -331.60746, -123.85679)" height="1.99958" width="169.2105" y="602.08331" x="136.06773"/>
  <rect id="svg_13" transform="rotate(-70.2452 -266.14 793.87)" fill="#3f3d56" height="169.21038" width="1.9995" y="1312.34803" x="400.76911"/>
  <path id="svg_14" fill="#e6e6e6" d="m312.93083,381.0506l-9.532,0l0,-12.31164l9.532,0l0,12.31164zm0,-24.6242l-9.532,0l0,-12.31165l9.532,0l0,12.31165z"/>
  <path id="svg_15" fill="#e6e6e6" d="m312.93083,432.0506l-9.532,0l0,-12.31164l9.532,0l0,12.31164zm0,-24.6242l-9.532,0l0,-12.31165l9.532,0l0,12.31165z"/>
  <circle id="svg_30" fill="#078c3a" r="47.28997" cy="51.81103" cx="303.79475"/>
  <polygon id="svg_31" fill="#fff" points="299.288 71.773 285.134 53.574 293.365 47.172 300.067 55.789 322.707 31.889 330.278 39.062 299.288 71.773"/>
 </g>
</svg>