<svg width="582" height="693" xmlns="http://www.w3.org/2000/svg" data-name="Layer 1">

 <g>
  <title>Layer 1</title>
  <path id="svg_1" fill="#3f3d56" d="m510.71004,350.45082q15.22494,2.04 30.29,5.13l0,1.85q-14.97,-3.045 -30.29,-5.06a451.07443,451.07443 0 0 0 -58.44,-3.87l-0.66,0a437.55757,437.55757 0 0 0 -181.93,39.77q-17.745,8.09994 -34.69,17.71a450.56907,450.56907 0 0 0 -101.59,78.68a445.02789,445.02789 0 0 0 -54.14,68.22q-3,4.635 -5.87,9.36a438.87647,438.87647 0 0 0 -21.14,38.97a432.50873,432.50873 0 0 0 -31.27,89.32c-0.17,0.66 -0.32,1.32995 -0.47,2c-0.04,0.18994 -0.09,0.38995 -0.13,0.57995l-1.95,-0.44c0.01,-0.05 0.02,-0.09 0.03,-0.13995c0.15,-0.67005 0.3,-1.33 0.46,-2a438.81469,438.81469 0 0 1 32.08,-91.47l0,-0.01a442.45563,442.45563 0 0 1 22.39,-41.02q2.88,-4.68009 5.87,-9.29a447.78406,447.78406 0 0 1 53.99,-67.68a442.59965,442.59965 0 0 1 39.13,-35.78l0.01,-0.01a446.23056,446.23056 0 0 1 62.6,-42.42q13.995,-7.86 28.39,-14.57995a442.5065,442.5065 0 0 1 189.17,-41.78a446.954,446.954 0 0 1 58.16,3.95995z"/>
  <circle id="svg_2" fill="#ff6584" r="54.31516" cy="69.40329" cx="300.1137"/>
  <path id="svg_3" fill="#3f3d56" d="m66.11092,680.77292c1.694,6.26184 7.49609,10.14 7.49609,10.14s3.05573,-6.27435 1.36177,-12.53619s-7.49609,-10.14 -7.49609,-10.14s-3.05571,6.27441 -1.36177,12.53619z"/>
  <path id="svg_4" fill="#0aa422" d="m68.60005,679.42722c4.64821,4.52484 5.216,11.48059 5.216,11.48059s-6.96851,-0.3805 -11.61672,-4.90534s-5.216,-11.48059 -5.216,-11.48059s6.9685,0.3805 11.61672,4.90534z"/>
  <path id="svg_5" fill="#3f3d56" d="m195.11092,680.77292c1.69394,6.26184 7.49609,10.14 7.49609,10.14s3.05573,-6.27435 1.36176,-12.53619s-7.4961,-10.14 -7.4961,-10.14s-3.05569,6.27441 -1.36175,12.53619z"/>
  <path id="svg_6" fill="#0aa422" d="m197.60005,679.42722c4.64823,4.52484 5.216,11.48059 5.216,11.48059s-6.96851,-0.3805 -11.61673,-4.90534s-5.216,-11.48059 -5.216,-11.48059s6.96851,0.3805 11.61673,4.90534z"/>
  <path id="svg_7" fill="#3f3d56" d="m541.00002,131.626l0,64.66482l-30.29,20.42l-44.5,29.98l-49.45,33.33l-77.6,-38.8l-98.05,-49.02l-20.42,-10.21l-20.42,-16.34l63.05,-56.30005l18.10863,-16.16788a116.71667,116.71667 0 0 1 77.73374,-29.65206l113.7425,0a68.09512,68.09512 0 0 1 68.09513,68.09517z"/>
  <path id="svg_8" fill="#ccc" d="m510.98,165.36082l30.02,-32.63c52.49023,193.62451 56.78033,380.8139 0,559.85l-38.09,0l-2.05,-2.05l-53.1,-53.09l-30.82,-30.82l0.81,-5.94l2.8,-20.43l6.15,-44.93l6.71,-49.02l6.71,-49.01l6.71,-49.02l5.44,-39.77l0.28,-2.01l0.99,-7.24l6.71,-49.02l5.96,-43.54l0.75,-5.47l4.94,-36.08l2.05,-14.98l36.76,-24.51l0.27,-0.29z"/>
  <path id="svg_9" fill="#f2f2f2" d="m200.26651,165.64846l310.44313,0l0,526.93641l-310.44313,0c-33.89704,-192.80505 -42.41782,-372.76405 0,-526.93641z"/>
  <rect id="svg_10" fill="#ccc" height="128.67053" width="57.18689" y="563.91434" x="320.76744"/>
  <rect id="svg_11" fill="#3f3d56" height="49.01733" width="236.91718" y="486.30356" x="234.98711"/>
  <rect id="svg_12" fill="#3f3d56" height="20.89922" width="101.01291" y="603.42171" x="388.98712"/>
  <rect id="svg_13" fill="#3f3d56" height="20.89922" width="101.01291" y="603.42171" x="208.98712"/>
  <rect id="svg_14" fill="#3f3d56" height="49.01733" width="236.91718" y="388.26886" x="234.98711"/>
  <rect id="svg_15" fill="#3f3d56" height="49.01733" width="236.91718" y="290.23419" x="234.98711"/>
  <rect id="svg_16" fill="#3f3d56" height="49.01733" width="236.91718" y="192.19949" x="234.98711"/>
  <rect x="0.00002" id="svg_17" fill="#3f3d56" height="2" width="541" y="690.53088"/>
  <rect id="svg_18" fill="#3f3d56" height="232.05347" width="5.87477" y="459.61478" x="73.38524"/>
  <path id="svg_19" fill="#0aa422" d="m133.4775,489.18737c0.374,81.14331 -56.71465,147.18748 -56.71465,147.18748s-57.695,-65.51514 -58.06894,-146.65845s56.71465,-147.18751 56.71465,-147.18751c6.07513,-21.49887 71.07742,18.15683 58.06894,146.65848z"/>
  <path id="svg_20" opacity="0.1" d="m133.4775,489.18737c0.374,81.14331 -56.71465,147.18748 -56.71465,147.18748s-57.695,-65.51514 -58.06894,-146.65845s56.71465,-147.18751 56.71465,-147.18751c6.07513,-21.49887 71.07742,18.15683 58.06894,146.65848z"/>
  <rect x="0.00002" id="svg_21" fill="#3f3d56" height="232.06" width="2.89001" y="459.61083"/>
  <path id="svg_22" fill="#0aa422" d="m57.11,489.19082c68.84412,17.83252 -5.14271,60.15967 -18.9,84.8l0,0.01a279.37215,279.37215 0 0 1 -35.32,59.32c-1.59,2 -2.5,3.05 -2.5,3.05l-0.39,-0.45l0,-292.26a275.50474,275.50474 0 0 1 37.59,61.24005l0,0.01c10.64,23.81995 -10.87718,76.40626 19.52,84.27995z"/>
  <path id="svg_23" fill="#f2f2f2" d="m141.17,279.44082s-37.36,-0.33 -83.63995,-0.12c-22.24,0.1 -42.49,0.31 -57.53,0.51l0,-25.87c16.18,-12.39 37.52,-22.26 57.37,-11.08c38.99996,21.98 83.79995,36.56 83.79995,36.56z"/>
  <path id="svg_24" fill="#f2f2f2" d="m225.53484,41.32031c-46.27674,0.21329 -83.94416,0.897 -83.94416,0.897s44.77366,-59.30728 83.77625,-37.33436s83.80664,36.562 83.80664,36.562s-37.362,-0.33792 -83.63873,-0.12464z"/>
  <path id="svg_25" fill="#3f3d56" d="m353.87001,61.61082l124.18752,-6.07231a68.09512,68.09512 0 0 1 70.87861,59.43831l15.06388,118.664l-52.91,-68.22l-0.11,-0.06l-158.33,-82.12l-3.14216,-1.62936c-9.61071,-4.9836 -6.45095,-19.47142 4.36209,-20.00064l0.00006,0z"/>
  <rect id="svg_26" fill="#f2f2f2" height="20.89922" width="101.01291" y="102.42171" x="315.98712"/>
  <path id="svg_27" fill="#f2f2f2" d="m378.00002,550.64082l-47,0q-49.10235,-191.68506 0,-376l47,0c29.92016,127.49278 30.99328,252.90355 0,376z"/>
 </g>
</svg>