<svg version="1.1" id="Layer_1" xmlns="http://www.w3.org/2000/svg" xmlns:xlink="http://www.w3.org/1999/xlink" x="0px" y="0px"
	 width="100%" viewBox="0 0 512 512" enable-background="new 0 0 512 512" xml:space="preserve">
<path fill="#000000" opacity="1.000000" stroke="none" 
	d="
M513.000000,212.531342 
	C510.308990,216.570602 510.063904,221.056793 508.550964,225.069748 
	C503.690002,237.963181 495.298950,248.127045 485.549286,257.670044 
	C460.305573,282.378540 435.585236,307.620758 410.467194,332.459015 
	C395.322784,347.434692 377.122864,354.908173 355.559662,355.601807 
	C337.862640,356.171112 322.333099,350.420288 306.934967,343.086304 
	C297.915558,338.790466 289.377380,333.624481 280.616028,328.861420 
	C269.412109,322.770508 268.714081,308.388763 272.711578,300.467194 
	C277.516357,290.945923 290.486664,286.859772 300.791779,291.878632 
	C308.701752,295.731018 316.207153,300.407623 324.067352,304.370850 
	C329.991943,307.358154 335.982666,310.542725 342.313538,312.330933 
	C357.738220,316.687653 371.357025,312.297211 382.538361,301.253357 
	C409.090668,275.027496 435.636993,248.784088 461.622162,222.001022 
	C472.588867,210.697617 474.974884,196.341003 469.219940,181.699951 
	C459.645752,157.342621 447.189087,134.438263 430.622467,114.057266 
	C415.528137,95.487541 397.838287,79.715698 377.289398,67.287155 
	C362.043365,58.065937 346.262634,49.899399 329.343079,44.211979 
	C316.025299,39.735275 303.718597,42.242695 292.941864,51.197968 
	C277.927734,63.674435 265.046509,78.370277 251.115646,91.975449 
	C238.122803,104.664536 225.406937,117.637321 212.577179,130.493256 
	C199.373962,143.723450 196.606003,160.961609 204.929962,177.569366 
	C210.437851,188.558533 215.771500,199.621323 222.095688,210.198624 
	C227.713333,219.594223 225.792923,230.495651 217.804382,238.483170 
	C172.680862,283.600891 127.552345,328.713654 82.442192,373.844696 
	C69.840065,386.452637 57.334881,399.157806 44.687477,411.719940 
	C42.256042,414.134979 41.265064,416.712921 41.295021,420.133453 
	C41.429264,435.462250 41.451099,450.794006 41.284451,466.122192 
	C41.241333,470.088379 42.272995,471.803467 46.588463,471.720581 
	C58.914688,471.483856 71.250000,471.507202 83.577843,471.690399 
	C87.575050,471.749786 88.793663,470.247192 88.711739,466.406067 
	C88.516350,457.245636 89.033356,448.058777 88.569420,438.917755 
	C87.792099,423.601898 96.486168,416.241699 111.387161,415.695587 
	C120.373322,415.366241 129.388397,415.407471 138.376083,415.709839 
	C143.072220,415.867828 144.940460,414.528168 144.746628,409.564514 
	C144.402313,400.746613 145.070953,391.881317 144.561676,383.079468 
	C143.696686,368.129913 151.979233,360.184570 166.719330,359.761505 
	C184.200836,359.259735 201.712982,359.407288 219.202560,359.748627 
	C231.072922,359.980347 238.183426,365.100616 240.693863,374.628448 
	C244.978210,390.888763 233.525314,402.270081 220.837555,401.495880 
	C211.042908,400.898193 201.177826,401.556396 191.353333,401.300354 
	C186.874741,401.183624 185.114059,402.485291 185.255142,407.224823 
	C185.562363,417.546722 185.373260,427.884247 185.337631,438.215210 
	C185.298721,449.496216 177.473511,457.327545 166.182159,457.372833 
	C155.851227,457.414276 145.514496,457.582520 135.191391,457.295959 
	C130.481339,457.165253 129.134094,458.907776 129.266785,463.413330 
	C129.541321,472.736481 128.913437,482.098969 129.461578,491.397827 
	C130.046082,501.313171 125.659081,507.866760 117.245590,512.776245 
	C82.645775,513.000000 48.291542,513.000000 13.256325,512.745605 
	C7.501784,509.453491 3.370379,505.542694 1.000000,500.000000 
	C1.000000,465.645782 1.000000,431.291534 1.283284,396.303619 
	C8.698346,385.506134 18.203133,377.554138 26.871586,368.856110 
	C75.669456,319.891998 124.611504,271.071381 173.607315,222.305252 
	C176.672516,219.254425 177.226074,217.032898 175.117950,212.993484 
	C165.632736,194.818512 157.042496,176.435257 158.523666,154.915726 
	C159.878021,135.238571 166.296494,117.874397 180.110764,103.826614 
	C206.037552,77.461517 232.345779,51.471249 258.524780,25.354572 
	C269.055054,14.849337 281.164459,7.004176 295.804565,3.427676 
	C297.329346,3.055192 299.111969,2.680135 300.000000,1.000000 
	C311.687561,1.000000 323.375122,1.000000 335.696899,1.300148 
	C339.616241,4.130984 343.829010,4.042379 347.480408,5.551727 
	C371.803375,15.605960 395.360748,27.057087 416.638794,42.786697 
	C432.059570,54.186367 446.285614,66.863579 458.678314,81.522926 
	C470.601501,95.626877 481.177856,110.737465 489.906128,126.976517 
	C499.496460,144.819351 508.696228,162.929764 513.000000,183.000000 
	C513.000000,192.687561 513.000000,202.375122 513.000000,212.531342 
z"/>
<path fill="#000000" opacity="1.000000" stroke="none" 
	d="
M386.159241,166.143631 
	C377.329651,175.661285 355.076904,176.071732 344.234802,166.699219 
	C333.477509,157.400055 330.790924,145.865540 333.185547,133.115112 
	C335.512695,120.723717 343.943268,112.466530 356.163208,109.448059 
	C379.152252,103.769508 398.128723,120.240242 397.512909,140.565445 
	C397.201996,150.827286 394.344360,159.297379 386.159241,166.143631 
z"/>
</svg>