<svg width="389.07045" height="411" xmlns="http://www.w3.org/2000/svg" data-name="Layer 1">

 <g>
  <title>Layer 1</title>
  <g id="svg_22">
   <path id="svg_5" fill="#5d5d68" d="m195.63841,408.45682a75.18955,75.18955 0 0 1 -18.63955,-2.41115l-1.19992,-0.332l-1.11309,-0.55768c-40.242,-20.17656 -74.192,-46.827 -100.90712,-79.21137a299.86458,299.86458 0 0 1 -50.94916,-90.47014a348.20978,348.20978 0 0 1 -19.69086,-122.66453c0.017,-0.87611 0.03139,-1.55256 0.03139,-2.01861c0,-20.28912 11.262,-38.0913 28.69121,-45.35357c13.33947,-5.55813 134.45539,-55.30526 143.20632,-58.89963c16.48038,-8.25772 34.062,-1.36535 36.87554,-0.16006c6.31094,2.58025 118.2752,48.375 142.47062,59.89621c24.93578,11.87415 31.5889,33.20566 31.5889,43.93787c0,48.58822 -8.415,93.99778 -25.01129,134.9674a312.51684,312.51684 0 0 1 -56.16213,90.51087c-45.84677,51.59381 -91.7057,69.8841 -92.14828,70.0453a50.11,50.11 0 0 1 -17.04258,2.72109zm-10.78453,-26.71374c3.97586,0.89138 13.12949,2.22845 19.0957,0.052c7.57929,-2.76408 45.96243,-22.668 81.83036,-63.03189c49.55709,-55.769 74.70242,-125.87542 74.73919,-208.37177c-0.08852,-1.67134 -1.27542,-13.59188 -17.06153,-21.10867c-23.72625,-11.29833 -140.10356,-58.88488 -141.27636,-59.3645l-0.32154,-0.13631c-2.43886,-1.022 -10.20055,-3.1747 -15.55082,-0.371l-1.07124,0.49943c-1.2972,0.53279 -129.86317,53.33754 -143.57481,59.05064c-9.59168,3.99651 -13.00917,13.89729 -13.00917,21.83037c0,0.57973 -0.015,1.423 -0.03619,2.51294c-1.09585,56.44716 11.96634,195.34603 156.23641,268.43876z"/>
   <path id="svg_6" fill="#0f770f" d="m180.39669,18.12384s-129.7345,53.28381 -143.63465,59.07553s-20.85019,19.69184 -20.85019,33.592s-10.42506,195.27813 164.48484,282.97404c0,0 15.87478,4.39241 27.91882,0s164.9454,-78.52642 164.9454,-283.55325c0,0 0,-20.85018 -24.32522,-32.43362s-141.93358,-59.6547 -141.93358,-59.6547s-14.44282,-6.37089 -26.60542,0z"/>
   <path id="svg_7" opacity="0.1" d="m194.29681,59.82421l0,284.25025s-130.89284,-63.0066 -129.73449,-228.64973l129.73449,-55.60052z"/>
   <polygon id="svg_8" fill="#fff" points="196.00379943847656,264.1187267303467 154.30780029296875,210.50672721862793 178.55580139160156,191.6477336883545 198.29879760742188,217.03173637390137 264.9938049316406,146.62573051452637 287.29681396484375,167.75672721862793 196.00379943847656,264.1187267303467 "/>
  </g>
 </g>
</svg>